 <svg  version="1.0" xmlns="http://www.w3.org/2000/svg"  width="300.000000pt" height="196.000000pt" viewBox="0 0 300.000000 196.000000"  preserveAspectRatio="xMidYMid meet">  <g transform="translate(0.000000,196.000000) scale(0.100000,-0.100000)" fill="#000000" stroke="none"> <path d="M746 1290 c-43 -8 -70 -35 -62 -63 3 -13 0 -17 -9 -13 -9 3 -16 -5 -20 -24 -3 -15 -15 -36 -26 -46 -25 -23 -24 -28 11 -41 35 -13 39 -29 10 -38 -24 -8 -42 -38 -34 -58 7 -19 53 -52 98 -71 32 -13 38 -13 42 -1 4 8 10 12 15 9 13 -8 11 40 -2 53 -8 8 -5 13 10 18 12 3 29 18 38 31 l16 25 11 -23 c6 -12 21 -27 33 -33 19 -10 19 -13 7 -30 -9 -12 -12 -30 -9 -46 6 -26 5 -26 -47 -25 -29 1 -56 5 -60 11 -4 5 -10 2 -13 -7 -4 -10 1 -27 10 -40 16 -22 17 -22 11 -2 -5 15 -1 24 10 28 13 5 15 1 11 -21 -3 -15 -2 -35 3 -43 4 -8 4 -24 -1 -35 -5 -13 -8 -15 -8 -5 -1 12 -3 13 -10 1 -5 -8 -5 -27 0 -43 4 -17 4 -40 -2 -54 -12 -34 -12 -39 6 -24 8 7 16 24 16 39 1 26 1 26 9 -4 l8 -30 -1 35 c-1 23 -6 34 -15 32 -8 -1 -11 2 -7 8 3 6 12 7 18 3 24 -15 35 -10 41 20 8 37 1 46 -14 18 -17 -32 -29 -25 -20 12 4 17 11 44 14 60 4 15 13 27 21 27 14 0 14 -4 0 -32 -14 -29 -14 -31 0 -14 8 11 15 23 15 28 0 4 5 8 10 8 6 0 16 4 23 10 7 5 32 25 57 43 25 18 49 45 54 60 9 24 6 31 -18 54 l-29 27 27 21 28 22 -23 6 c-19 5 -21 9 -11 19 6 6 12 25 12 40 0 27 -25 43 -61 37 -31 -4 -79 14 -79 30 0 39 -31 47 -114 31z m98 -22 c19 -31 -29 -88 -79 -93 -44 -4 -74 -50 -55 -85 6 -11 9 -20 6 -20 -2 0 -11 -3 -20 -6 -11 -4 -16 -1 -16 10 0 9 -14 25 -31 35 -24 15 -27 20 -14 25 9 3 21 20 27 36 8 23 15 29 27 25 29 -12 81 -11 81 1 0 7 -13 11 -31 10 -20 0 -34 4 -37 14 -4 13 -3 13 10 2 11 -9 18 -10 23 -2 8 13 -4 32 -16 25 -11 -8 -12 5 0 23 5 8 17 11 33 7 15 -4 29 -2 33 5 10 16 46 8 59 -12z m52 -49 c4 -6 20 -8 40 -4 46 8 37 -13 -18 -43 -39 -21 -42 -21 -60 -6 -21 20 -23 35 -6 52 15 15 35 15 44 1z m-70 -75 c0 -17 3 -35 7 -41 4 -7 -4 -24 -17 -38 -19 -21 -29 -24 -43 -17 -56 30 -72 97 -23 97 14 0 31 8 38 18 19 25 37 16 38 -19z m144 25 c0 -5 6 -7 13 -3 7 5 6 1 -3 -10 -13 -17 -14 -17 -21 1 -7 16 -8 15 -8 -4 -1 -17 5 -23 19 -23 23 0 27 -15 5 -24 -8 -3 -15 -12 -15 -20 0 -13 -4 -13 -28 1 -34 19 -59 12 -72 -19 -11 -27 -12 -13 -4 31 5 25 17 37 53 56 52 27 61 29 61 14z m-30 -104 c7 -8 23 -15 35 -15 13 0 25 -7 29 -15 3 -8 0 -15 -7 -15 -23 0 -78 -55 -72 -72 6 -15 -22 -35 -33 -24 -11 11 -3 58 12 75 16 18 16 19 -9 25 -24 6 -34 33 -18 49 12 12 50 7 63 -8z m-160 -38 c0 -5 -9 -5 -20 -2 -23 7 -25 2 -8 -25 14 -22 3 -51 -23 -58 -11 -3 -11 -1 1 7 8 6 12 11 8 12 -5 1 -12 2 -16 3 -12 2 -45 36 -35 36 4 0 -1 7 -11 15 -17 13 -21 13 -30 -1 -10 -13 -12 -11 -14 9 -2 27 23 44 42 28 7 -6 18 -5 29 4 16 11 23 11 48 -3 16 -10 29 -21 29 -25z"/> <path d="M1074 1087 c-2 -7 -3 -65 -2 -128 l3 -114 705 0 705 0 0 125 0 125 -703 3 c-574 2 -704 0 -708 -11z m1404 -114 l-3 -118 -695 0 -695 0 -3 118 -3 117 701 0 701 0 -3 -117z"/> <path d="M1120 965 l0 -85 55 0 c51 0 55 2 55 24 0 21 -6 24 -40 28 -22 2 -40 0 -40 -4 0 -5 16 -8 36 -8 53 0 38 -25 -17 -26 l-44 -2 45 8 45 7 -38 1 c-31 2 -38 5 -35 20 2 12 14 18 41 20 29 3 37 7 37 23 0 14 -7 19 -29 19 -23 0 -31 5 -34 23 -4 19 -4 18 -6 -5 -1 -25 3 -28 29 -28 17 0 30 -4 30 -9 0 -5 -15 -6 -32 -2 -28 6 -34 12 -36 37 -3 29 -2 30 37 30 47 -1 55 -13 14 -19 -26 -4 -26 -4 5 -6 26 -1 32 3 32 19 0 18 -7 20 -55 20 l-55 0 0 -85z"/> <path d="M1280 1046 c0 -14 74 -156 81 -156 5 0 11 -1 14 -2 2 -2 22 34 44 79 l40 83 -26 -2 c-20 -2 -30 -12 -46 -46 -14 -32 -16 -47 -8 -55 13 -13 15 -30 2 -22 -5 3 -13 0 -17 -6 -4 -8 -18 9 -35 42 -30 57 -35 79 -19 79 5 0 6 -7 3 -17 -4 -11 -3 -14 5 -9 8 5 10 1 5 -10 -4 -12 -3 -15 5 -10 8 5 10 1 5 -10 -4 -12 -3 -15 5 -10 8 5 10 1 5 -11 -5 -14 -3 -16 7 -6 21 20 -16 93 -47 93 -12 0 -23 -2 -23 -4z m137 -61 c-18 -37 -25 -44 -30 -31 -5 11 -3 15 5 10 8 -5 9 -2 5 10 -5 11 -3 15 5 10 8 -5 9 -2 5 10 -5 11 -3 15 5 10 8 -5 9 -2 5 10 -4 10 -3 15 3 11 6 -3 10 -1 10 6 0 7 3 10 6 7 3 -3 -5 -27 -19 -53z"/> <path d="M1510 965 l0 -85 55 0 c51 0 55 2 55 24 0 21 -6 24 -40 28 -22 2 -40 0 -40 -4 0 -4 15 -8 33 -10 48 -5 39 -23 -13 -24 l-45 -2 45 8 c44 7 44 7 9 8 -43 2 -50 21 -39 93 7 38 8 40 9 12 1 -30 4 -33 31 -33 17 0 30 -4 30 -9 0 -6 -16 -7 -35 -4 -23 4 -35 2 -35 -6 0 -6 17 -11 40 -11 33 0 40 3 40 20 0 16 -7 20 -30 20 -23 0 -30 5 -30 19 0 13 9 20 30 23 33 5 29 -7 -5 -15 -13 -3 -9 -5 13 -6 26 -1 32 3 32 19 0 18 -7 20 -55 20 l-55 0 0 -85z"/> <path d="M1677 1043 c-4 -3 -7 -42 -7 -86 0 -102 8 -97 11 6 l2 78 28 -27 c16 -15 26 -32 22 -37 -4 -6 -1 -7 7 -2 9 6 11 4 5 -5 -6 -9 -4 -11 5 -5 9 6 11 4 5 -5 -6 -9 -4 -11 5 -5 9 6 11 4 5 -5 -6 -9 -4 -11 5 -5 9 6 11 4 5 -6 -6 -10 -5 -11 4 -3 9 8 0 24 -35 62 -48 52 -55 58 -67 45z"/> <path d="M1771 1013 c1 -33 2 -35 8 -13 l8 25 7 -30 c8 -38 5 -95 -6 -89 -5 3 -5 10 -2 16 4 6 3 8 -3 5 -11 -7 -67 46 -58 55 3 2 -3 12 -13 22 -18 16 -19 14 -21 -54 -1 -41 2 -70 8 -70 17 0 20 15 11 56 -6 26 -5 42 2 49 8 7 9 6 3 -3 -5 -9 8 -29 36 -58 24 -24 47 -44 51 -44 4 0 8 38 8 85 0 78 -2 85 -20 85 -17 0 -20 -6 -19 -37z"/> <path d="M1860 1030 c0 -14 7 -20 21 -20 19 0 20 -5 18 -62 -3 -58 -1 -63 19 -66 21 -3 22 0 20 60 l-2 63 -3 -57 c-2 -32 -7 -58 -11 -58 -4 0 -5 27 -4 60 4 59 4 60 33 60 22 0 29 5 29 20 0 18 -7 20 -60 20 -53 0 -60 -2 -60 -20z m110 0 c0 -6 -23 -9 -52 -8 l-53 1 50 7 c28 4 51 8 53 8 1 1 2 -2 2 -8z"/> <path d="M2030 965 c0 -78 2 -85 20 -85 18 0 20 7 20 85 0 78 -2 85 -20 85 -18 0 -20 -7 -20 -85z m22 -23 c2 -28 0 -52 -4 -52 -5 0 -7 35 -7 78 2 78 6 69 11 -26z"/> <path d="M2130 965 c0 -78 2 -85 20 -85 16 0 20 7 20 30 0 27 3 30 30 30 17 0 30 4 30 9 0 24 -14 41 -34 40 -20 0 -20 -1 -1 -9 17 -7 16 -9 -10 -10 l-30 -2 30 -8 30 -8 -27 -1 c-24 -1 -28 -5 -28 -31 0 -16 -3 -30 -7 -30 -5 0 -6 35 -4 77 4 63 6 71 11 43 6 -29 8 -31 9 -9 1 22 7 28 31 31 17 3 30 1 30 -3 0 -4 -12 -10 -27 -12 -26 -4 -26 -4 5 -6 26 -1 32 3 32 19 0 18 -7 20 -55 20 l-55 0 0 -85z"/> <path d="M2301 1022 c11 -15 24 -26 27 -25 4 1 12 -2 17 -7 6 -4 18 -6 27 -5 11 2 15 -2 11 -12 -5 -12 -7 -12 -15 -1 -6 8 -8 -4 -6 -34 2 -27 0 -48 -4 -48 -5 0 -8 20 -8 44 0 25 -5 48 -12 52 -8 5 -9 2 -5 -10 4 -10 7 -36 7 -58 0 -35 2 -39 23 -36 18 2 22 10 25 48 2 25 7 49 13 55 16 16 10 22 -18 20 -16 -1 -34 3 -42 9 -8 6 -16 10 -18 9 -1 -2 -3 -1 -3 2 0 3 0 8 0 11 0 4 7 0 17 -7 14 -12 16 -12 11 1 -3 9 -18 16 -36 17 l-32 1 21 -26z"/> <path d="M2382 1038 c-18 -18 -14 -25 14 -24 29 2 57 36 29 36 -10 0 -13 -5 -9 -12 6 -10 5 -10 -7 -1 -12 10 -18 10 -27 1z"/> <path d="M831 730 c0 -8 4 -24 9 -35 7 -19 8 -19 15 -2 5 12 2 24 -9 35 -13 13 -16 14 -15 2z"/> <path d="M797 660 c-6 -23 10 -37 24 -23 10 10 2 43 -11 43 -4 0 -10 -9 -13 -20z"/> </g> </svg> 